# xmcd
#
# Track frame offsets: 
#        150
#        10003
#        24293
#        36437
#        50042
#        62870
#        76072
#        88276
#        100869
#        113273
#        122967
#        136867
#        147017
#        159725
#        173199
#        185707
#        196130
#        207727
#        220192
#        231316
#        241492
#
# Disc length: 3354 seconds
#
# Revision: 0
# Processed by: cddbd v1.5.2PL0 Copyright (c) Steve Scherf et al.
# Submitted via: ExactAudioCopy v0.99pb3
#
DISCID=2a0d1815
DTITLE=Various Artist - Vee-Jay The Definitive Collection [CD2]
DYEAR=2007
DGENRE=R&B/Soul
TTITLE0=John Lee Hooker - Dimples
TTITLE1=Pee Wee Crayton - The Telephone Is Ringing
TTITLE2=Snooky Pryor - Judgement Day
TTITLE3=The Staple Singers - Uncloudy Day
TTITLE4=Sonny Til's Orioles - For All We Know
TTITLE5=The Delegates - Mother's Son
TTITLE6=Billy Emerson - The Pleasure's All Mine
TTITLE7=Jimmy Reed - Honest I Do
TTITLE8=The Harmonizing Four - Farther Along
TTITLE9=Gene Allison - You Can Make It If You Try
TTITLE10=Elmore James - It Hurts Me Too
TTITLE11=Priscilla Bowman With The Spaniels - A Rockin' Good Way
TTITLE12=Lee Diamond And The Upsetters - Hattie Malatti
TTITLE13=Bobby Parker - Blues Get Off My Shoulder
TTITLE14=Jerry Butler and The Impressions - For Your Precious Love
TTITLE15=Leonard Carbo - Pigtails And Blue Jeans
TTITLE16=John Lee Hooker - I Love You Honey
TTITLE17=The Original 5 Blind Boys Of Mississippi - Leave You In The H
TTITLE17=ands Of The Lord
TTITLE18=Dee Clark - Nobody But You
TTITLE19=Sheriff and The Ravels - Shombalor
TTITLE20=Harold Burrage - Crying For My Baby
EXTD=
EXTT0=
EXTT1=
EXTT2=
EXTT3=
EXTT4=
EXTT5=
EXTT6=
EXTT7=
EXTT8=
EXTT9=
EXTT10=
EXTT11=
EXTT12=
EXTT13=
EXTT14=
EXTT15=
EXTT16=
EXTT17=
EXTT18=
EXTT19=
EXTT20=
PLAYORDER=
